<svg xmlns="http://www.w3.org/2000/svg" viewBox="0 0 1200 168" width="1200" height="168" role="img" aria-labelledby="ttl dsc">
<title id="ttl">Profile telemetry</title>
<desc id="dsc">current focus: Gemini Enterprise on GCP; active stack: GCP · IAM · VPC-SC; last shipped: ralphsin · 7 days ago; refreshed 31 aug 2026.</desc>
<defs>
<style>.mono{font-family:ui-monospace,SFMono-Regular,Menlo,Consolas,"Liberation Mono","DejaVu Sans Mono",monospace}.blip{animation:b 3s ease-in-out infinite}@keyframes b{0%,100%{opacity:.35}50%{opacity:1}}@media (prefers-reduced-motion:reduce){.blip{animation:none;opacity:.8}}</style>
<pattern id="g" width="40" height="40" patternUnits="userSpaceOnUse"><path d="M40 0 L0 0 L0 40" fill="none" stroke="#161C24" stroke-width="1"/></pattern>
</defs>
<rect width="1200" height="168" fill="#0B0E13"/>
<rect width="1200" height="168" fill="url(#g)"/>
<rect x="0" y="0" width="1200" height="2" fill="#C98A4B" opacity="0.7"/>
<path d="M18 26 L18 14 L30 14" fill="none" stroke="#C98A4B" stroke-width="1.2"/>
<circle cx="72" cy="36" r="4" fill="#C98A4B" class="blip"/>
<text class="mono" x="88" y="41" font-size="15" letter-spacing="1" fill="#808B99">TELEMETRY</text>
<text class="mono" x="1140" y="41" font-size="14" fill="#808B99" text-anchor="end">refreshed 31 aug 2026</text>
<line x1="60" y1="60" x2="1140" y2="60" stroke="#232A33" stroke-width="1"/>
<rect x="60" y="78" width="320" height="62" rx="3" fill="#151B23" stroke="#3A3226" stroke-width="1"/>
<rect x="60" y="78" width="3" height="62" fill="#C98A4B"/>
<text class="mono" x="80" y="100" font-size="11" letter-spacing="1.5" fill="#C98A4B">CURRENT FOCUS</text>
<text class="mono" x="80" y="126" font-size="18" fill="#E9EDF2">Gemini Enterprise on GCP</text>
<rect x="440" y="78" width="320" height="62" rx="3" fill="#151B23" stroke="#3A3226" stroke-width="1"/>
<rect x="440" y="78" width="3" height="62" fill="#7FA3C9"/>
<text class="mono" x="460" y="100" font-size="11" letter-spacing="1.5" fill="#7FA3C9">ACTIVE STACK</text>
<text class="mono" x="460" y="126" font-size="18" fill="#E9EDF2">GCP · IAM · VPC-SC</text>
<rect x="820" y="78" width="320" height="62" rx="3" fill="#151B23" stroke="#3A3226" stroke-width="1"/>
<rect x="820" y="78" width="3" height="62" fill="#C98A4B"/>
<text class="mono" x="840" y="100" font-size="11" letter-spacing="1.5" fill="#C98A4B">LAST SHIPPED</text>
<text class="mono" x="840" y="126" font-size="18" fill="#E9EDF2">ralphsin · 7 days ago</text>
</svg>
